#!OML:ASF E:\Mandelcareful walks\Project 1\Capture day 1\Session 1\Subject1.ASF
:FULLY-SPECIFIED
:DEGREES
193
root 8.67972 16.5995 2.69529 -36.8054 79.5118 -37.3922
lowerback 14.1031 4.13009 3.27474
upperback 9.34867 6.31549 1.69686
thorax 2.15794 3.48114 -0.786315
lowerneck -22.8624 8.67483 5.18383
upperneck 26.5316 14.3209 -10.1771
head 14.0767 5.51363 -2.09827
rclavicle -6.35117e-014 -2.08724e-015
rhumerus -44.0366 16.5191 -81.8151
rradius 67.6362
rwrist -24.3366
rhand -12.0927 -14.2251
rfingers 7.12502
rthumb 13.9677 -43.7359
lclavicle -6.35117e-014 -2.08724e-015
lhumerus -53.8733 -25.9861 81.378
lradius 47.0028
lwrist 16.5774
lhand -20.1897 -16.1523
lfingers 7.12502
lthumb 6.15664 13.7382
rfemur -6.08849 -6.03408 16.7694
rtibia 61.4055
rfoot -1.22192 -7.61954
rtoes -5.06636
lfemur -39.3448 15.2234 -17.2801
ltibia 37.3811
lfoot 2.09811 12.8796
ltoes -20.1353
194
root 9.24862 16.3814 2.69531 -33.1266 79.8928 -32.1432
lowerback 15.43 4.04963 2.02909
upperback 9.41794 6.12215 1.32612
thorax 1.43562 3.344 -0.579525
lowerneck -22.4119 8.7953 5.33745
upperneck 26.5519 14.3735 -9.92676
head 13.9802 5.60285 -2.02968
rclavicle 7.46933e-014 -1.02126e-014
rhumerus -44.3036 16.8963 -82.4189
rradius 66.61
rwrist -24.2028
rhand -11.911 -14.3413
rfingers 7.12502
rthumb 14.1428 -43.8399
lclavicle 7.46933e-014 -1.02126e-014
lhumerus -51.8671 -26.5952 79.2744
lradius 45.5113
lwrist 15.8441
lhand -21.4246 -16.1161
lfingers 7.12502
lthumb 4.96433 13.8057
rfemur -7.40668 -6.84513 14.7713
rtibia 65.9875
rfoot -3.52214 -7.43558
rtoes -4.87673
lfemur -37.149 15.4403 -18.3912
ltibia 40.196
lfoot 5.1959 5.49369
ltoes 6.83082
195
root 9.80921 16.1585 2.67842 -27.5325 80.238 -25.0563
lowerback 16.8605 3.89685 0.628602
upperback 9.42137 5.76913 0.913532
thorax 0.595679 3.12536 -0.306846
lowerneck -22.3348 8.98439 5.2027
upperneck 26.7868 14.6035 -9.52028
head 14.0297 5.73535 -1.80532
rclavicle -1.57537e-014 2.03257e-014
rhumerus -44.2353 17.502 -82.9125
rradius 65.2422
rwrist -24.066
rhand -11.669 -14.278
rfingers 7.12502
rthumb 14.376 -43.7602
lclavicle -1.57537e-014 2.03257e-014
lhumerus -49.4313 -26.5632 77.1883
lradius 43.6834
lwrist 14.8408
lhand -22.5454 -15.8342
lfingers 7.12502
lthumb 3.88206 14.1101
rfemur -9.3157 -7.7549 12.4504
rtibia 70.3732
rfoot -6.0347 -7.87288
rtoes 1.20652
lfemur -35.1586 15.289 -19.6657
ltibia 43.257
lfoot -1.79389 3.14083
ltoes 0.506477
196
root 10.3046 15.9198 2.62781 -22.3552 80.3104 -18.4538
lowerback 19.2077 3.67233 -0.254068
upperback 9.13242 5.34003 0.560545
thorax -0.960481 2.886 -0.309657
lowerneck -21.9916 9.03578 5.04668
upperneck 26.6763 14.7302 -9.5054
head 13.9076 5.79711 -1.76093
rclavicle 7.99611e-014 -2.15681e-014
rhumerus -44.2183 17.9985 -83.164
rradius 63.7151
rwrist -23.7758
rhand -11.3935 -14.6752
rfingers 7.12502
rthumb 14.6414 -44.1383
lclavicle 7.99611e-014 -2.15681e-014
lhumerus -46.6811 -25.7543 75.325
lradius 41.5481
lwrist 13.3107
lhand -23.5349 -15.4608
lfingers 7.12502
lthumb 2.92653 14.4988
rfemur -12.1477 -8.62289 10.4629
rtibia 74.5665
rfoot -8.23907 -9.09224
rtoes 3.73278
lfemur -33.7965 15.4775 -21.0077
ltibia 46.659
lfoot -5.24005 3.14933
ltoes 14.9815
197
root 10.7798 15.7289 2.58437 -13.0707 80.4013 -7.49092
lowerback 21.935 3.63818 -2.0638
upperback 8.85526 4.91612 0.150616
thorax -2.72939 2.64411 0.15257
lowerneck -21.1706 9.00079 5.00476
upperneck 25.9584 14.7382 -9.90858
head 13.4762 5.80991 -1.93732
rclavicle -8.16011e-014 4.34344e-014
rhumerus -44.4455 18.1651 -83.269
rradius 62.1814
rwrist -23.2054
rhand -11.3487 -15.6154
rfingers 7.12502
rthumb 14.6846 -45.0754
lclavicle -8.16011e-014 4.34344e-014
lhumerus -43.6305 -24.1633 73.5952
lradius 39.2619
lwrist 11.0406
lhand -24.2582 -14.9476
lfingers 7.12502
lthumb 2.22799 15.0205
rfemur -15.0768 -8.99612 8.05223
rtibia 78.0173
rfoot -10.5377 -10.436
rtoes 3.57355
lfemur -32.1151 15.1098 -22.9414
ltibia 50.1979
lfoot -10.9398 5.37967
ltoes 21.4181
198
root 11.2189 15.5853 2.59642 3.03015 80.8775 9.06311
lowerback 23.7175 3.76546 -5.35242
upperback 8.5761 4.28 -0.41286
thorax -4.04928 2.30585 1.43701
lowerneck -22.1184 8.91244 4.22005
upperneck 25.9061 14.6617 -9.431
head 13.5253 5.71557 -1.61121
rclavicle 4.95968e-014 -2.16675e-014
rhumerus -44.0141 17.8269 -83.1761
rradius 60.5038
rwrist -22.5529
rhand -12.0586 -16.3794
rfingers 7.12502
rthumb 14.0006 -45.888
lclavicle 4.95968e-014 -2.16675e-014
lhumerus -39.5454 -22.386 71.5845
lradius 37.3417
lwrist 8.44938
lhand -24.6909 -14.0542
lfingers 7.12502
lthumb 1.81014 15.9178
rfemur -19.8029 -10.0112 5.29254
rtibia 80.88
rfoot -12.6447 -11.1119
rtoes 0.1521
lfemur -32.034 13.8015 -25.8747
ltibia 53.7175
lfoot -13.286 6.38648
ltoes 14.7445
199
root 11.6452 15.4403 2.60013 4.86969 81.1391 11.1059
lowerback 24.9241 3.51714 -5.74407
upperback 8.68216 3.81643 -0.508893
thorax -4.50354 2.09443 1.62389
lowerneck -22.2278 8.70366 4.07726
upperneck 24.7467 14.2379 -9.63508
head 13.0432 5.52326 -1.74842
rclavicle -1.19271e-015 1.55052e-014
rhumerus -43.0655 17.2251 -82.8809
rradius 58.6811
rwrist -22.0945
rhand -13.1338 -17.4646
rfingers 7.12502
rthumb 12.9642 -47.0418
lclavicle -1.19271e-015 1.55052e-014
lhumerus -34.9875 -20.9326 69.6918
lradius 36.5452
lwrist 6.41826
lhand -24.7168 -10.9191
lfingers 7.12502
lthumb 1.78512 19.0532
rfemur -24.5473 -10.4347 5.79662
rtibia 82.495
rfoot -14.2104 -12.1084
rtoes -0.471029
lfemur -32.3257 13.2434 -26.0195
ltibia 57.1957
lfoot -14.8346 6.34919
ltoes 15.0054
200
root 12.0669 15.2863 2.59809 4.64198 81.4426 11.3326
lowerback 26.166 3.17702 -5.46086
upperback 8.97266 3.4151 -0.616164
thorax -4.73567 1.92335 1.41557
lowerneck -22.7106 8.29562 3.43324
upperneck 24.0901 13.5913 -9.21378
head 12.7302 5.2335 -1.60077
rclavicle 1.74931e-014 -1.53064e-014
rhumerus -42.2012 16.4635 -82.5237
rradius 57.0524
rwrist -21.7997
rhand -13.5863 -19.8048
rfingers 7.12502
rthumb 12.528 -49.4092
lclavicle 1.74931e-014 -1.53064e-014
lhumerus -30.5166 -19.9447 68.4193
lradius 36.6771
lwrist 5.59952
lhand -24.377 -8.07711
lfingers 7.12502
lthumb 2.11329 21.8922
rfemur -28.7285 -10.5436 6.73268
rtibia 83.0081
rfoot -15.5469 -13.0855
rtoes 2.02783
lfemur -31.9979 13.2183 -25.9117
ltibia 60.3022
lfoot -16.5494 5.93748
ltoes 15.3531
201
root 12.481 15.1886 2.59647 5.10498 81.992 12.1441
lowerback 27.0255 2.71014 -5.30721
upperback 9.26799 2.85408 -0.648462
thorax -4.77404 1.66835 1.43718
lowerneck -22.931 7.98332 3.01422
upperneck 23.8616 13.1741 -9.00653
head 12.6011 5.03599 -1.53169
rclavicle -2.60408e-014 1.74931e-014
rhumerus -41.5198 15.9336 -82.0935
rradius 55.3639
rwrist -21.6261
rhand -13.4797 -20.1812
rfingers 7.12502
rthumb 12.6308 -49.7793
lclavicle -2.60408e-014 1.74931e-014
lhumerus -27.2803 -19.2912 67.8672
lradius 38.5671
lwrist 6.20482
lhand -25.9913 -9.23272
lfingers 7.12502
lthumb 0.554155 20.7463
rfemur -32.3702 -10.5935 7.70689
rtibia 82.0724
rfoot -16.6433 -13.7326
rtoes 4.78033
lfemur -31.0104 13.4192 -25.9895
ltibia 62.6663
lfoot -18.8608 5.19464
ltoes 14.9555
202
root 12.8878 15.1261 2.60317 8.05294 82.9855 15.1005
lowerback 27.601 2.15124 -5.43914
upperback 9.26915 2.09265 -0.541519
thorax -5.00241 1.30646 1.8479
lowerneck -22.7255 7.62636 2.5708
upperneck 24.1679 12.8334 -8.85766
head 12.6146 4.86435 -1.47704
rclavicle -1.91827e-014 7.7526e-015
rhumerus -41.2677 15.8553 -81.5958
rradius 54.0008
rwrist -21.7454
rhand -13.2718 -20.2068
rfingers 7.12502
rthumb 12.8311 -49.7924
lclavicle -1.91827e-014 7.7526e-015
lhumerus -24.662 -19.4924 67.9791
lradius 41.105
lwrist 8.19886
lhand -26.6785 -9.05384
lfingers 7.12502
lthumb -0.109602 20.9259
rfemur -35.762 -10.7166 8.48094
rtibia 79.8616
rfoot -17.2211 -13.6708
rtoes 5.73005
lfemur -29.9382 13.3872 -26.2561
ltibia 64.1481
lfoot -20.8818 4.1281
ltoes 15.4934
203
root 13.293 15.0951 2.61782 13.7261 84.2908 20.5811
lowerback 27.8922 1.48592 -5.58832
upperback 9.25613 1.20965 -0.384643
thorax -5.0933 0.881963 2.37795
lowerneck -22.2862 7.37902 2.01159
upperneck 24.1863 12.5656 -8.48033
head 12.4449 4.76263 -1.31209
rclavicle -9.24349e-015 4.17448e-015
rhumerus -41.1522 16.0806 -81.0421
rradius 53.0507
rwrist -22.0433
rhand -12.754 -20.077
rfingers 7.12502
rthumb 13.3303 -49.6307
lclavicle -9.24349e-015 4.17448e-015
lhumerus -22.1749 -20.4696 68.2507
lradius 43.9751
lwrist 10.1554
lhand -27.371 -9.09764
lfingers 7.12502
lthumb -0.77839 20.8807
rfemur -38.6023 -10.8302 9.09925
rtibia 76.468
rfoot -17.1562 -12.8495
rtoes 4.29008
lfemur -28.6909 12.8393 -26.5075
ltibia 64.8095
lfoot -22.6101 3.00943
ltoes 16.0316
204
root 13.7003 15.0961 2.63727 21.7425 85.5444 28.3452
lowerback 28.0645 0.797184 -5.4758
upperback 9.25638 0.367317 -0.338116
thorax -5.1065 0.479993 2.62851
lowerneck -21.9383 7.21092 1.87592
upperneck 24.1374 12.3214 -8.34557
head 12.3204 4.6752 -1.29695
rclavicle 5.96354e-016 7.35503e-015
rhumerus -41.3972 16.1065 -80.6257
rradius 52.694
rwrist -22.0032
rhand -11.8354 -20.1679
rfingers 7.12502
rthumb 14.2156 -49.6614
lclavicle 5.96354e-016 7.35503e-015
lhumerus -19.8197 -21.8029 68.2311
lradius 47.8357
lwrist 12.7867
lhand -27.3726 -10.2551
lfingers 7.12502
lthumb -0.779989 19.7232
rfemur -40.7613 -10.8287 9.7567
rtibia 72.123
rfoot -16.006 -11.7888
rtoes 2.28852
lfemur -27.1297 12.2552 -26.6048
ltibia 64.8055
lfoot -24.2333 2.01437
ltoes 16.1432
205
root 14.1085 15.1184 2.66259 32.5138 86.5602 38.7288
lowerback 28.2 0.188808 -5.25199
upperback 9.22704 -0.347509 -0.318532
thorax -5.14811 0.140637 2.74616
lowerneck -22.1091 6.94918 1.74807
upperneck 24.1581 11.9017 -8.08343
head 12.3054 4.50152 -1.25174
rclavicle 5.96354e-016 -4.77083e-015
rhumerus -41.9513 15.9107 -80.2745
rradius 52.936
rwrist -21.3835
rhand -11.0199 -20.2474
rfingers 7.12502
rthumb 15.0013 -49.684
lclavicle 5.96354e-016 -4.77083e-015
lhumerus -18.0392 -23.7304 68.1927
lradius 52.4041
lwrist 14.7313
lhand -28.45 -11.0297
lfingers 7.12502
lthumb -1.82053 18.9423
rfemur -42.4716 -10.6612 10.4905
rtibia 67.1098
rfoot -13.5879 -10.8138
rtoes 0.763564
lfemur -25.4815 11.8377 -26.5739
ltibia 64.3141
lfoot -25.6749 1.30008
ltoes 16.3338
206
root 14.5096 15.1901 2.68873 51.2074 87.4278 56.9025
lowerback 27.9321 -0.465346 -5.02967
upperback 9.42993 -1.07311 -0.284861
thorax -4.7391 -0.214478 2.87639
lowerneck -22.5946 6.66746 1.55765
upperneck 23.8802 11.4322 -7.84347
head 12.2322 4.29442 -1.20577
rclavicle -1.88845e-014 6.95746e-015
rhumerus -42.2261 15.7795 -79.9079
rradius 53.4875
rwrist -20.438
rhand -10.575 -19.9293
rfingers 7.12502
rthumb 15.4299 -49.3334
lclavicle -1.88845e-014 6.95746e-015
lhumerus -16.3031 -25.6644 67.875
lradius 57.4795
lwrist 17.0469
lhand -29.5964 -12.7764
lfingers 7.12502
lthumb -2.92771 17.1832
rfemur -43.6074 -11.03 11.2828
rtibia 61.5442
rfoot -9.96528 -9.78675
rtoes -1.73779
lfemur -23.6848 11.2687 -26.5022
ltibia 63.2888
lfoot -26.8417 0.713768
ltoes 16.952
207
root 14.9304 15.2779 2.70846 71.8723 87.7489 77.1892
lowerback 27.7112 -1.04397 -4.97333
upperback 9.53603 -1.76433 -0.220082
thorax -4.45704 -0.556538 3.1186
lowerneck -22.777 6.60223 1.50148
upperneck 23.577 11.2876 -7.78927
head 12.1329 4.23343 -1.19947
rclavicle -6.95746e-016 5.96354e-015
rhumerus -42.8627 16.1276 -79.6442
rradius 54.3487
rwrist -19.7753
rhand -10.4063 -19.56
rfingers 7.12502
rthumb 15.5924 -48.9516
lclavicle -6.95746e-016 5.96354e-015
lhumerus -15.414 -27.1113 67.7239
lradius 63.0613
lwrist 18.581
lhand -29.7351 -13.159
lfingers 7.12502
lthumb -3.06166 16.7987
rfemur -44.1034 -11.2978 12.0506
rtibia 55.8754
rfoot -5.46842 -9.18053
rtoes -4.15139
lfemur -21.4733 10.7814 -26.3879
ltibia 61.9924
lfoot -27.9032 0.20798
ltoes 17.3984
